<?xml version="1.0" encoding="UTF-8"?>
<svg width="750px" height="148px" viewBox="0 0 750 148" version="1.1" xmlns="http://www.w3.org/2000/svg" xmlns:xlink="http://www.w3.org/1999/xlink">
    <!-- Generator: Sketch 40.3 (33839) - http://www.bohemiancoding.com/sketch -->
    <title>Page 1</title>
    <desc>Created with Sketch.</desc>
    <defs></defs>
    <g id="Page-1" stroke="none" stroke-width="1" fill="none" fill-rule="evenodd" opacity="0.587069746">
        <g id="TATE-HOME" transform="translate(-297.000000, -781.000000)" fill="#FFFFFF">
            <g id="MEET-THE-DOCTORS" transform="translate(-5.000000, 750.000000)">
                <g id="Page-1" transform="translate(302.000000, 31.000000)">
                    <g id="Group-2">
                        <path d="M24.5045861,71.367139 C22.4857366,65.3267443 17.3614398,60.1651775 5.13721374,60.0847215 C-2.15410494,59.6329296 -1.30211343,71.9488984 5.28538618,79.1466228 C11.8728858,86.3443472 32.4379853,107.182471 59.1028501,111.848924 C85.767715,116.509187 149.951076,132.105288 335.845746,66.3788623 C521.740416,0.65243626 581.095825,9.92964083 605.161498,33.7508286 C607.118609,37.2351956 620.79369,37.5817756 615.706437,33.1133689 C590.436862,10.3071655 548.893015,-8.6000126 464.589072,4.074914 C328.251909,24.5726468 164.342324,106.743057 73.6360967,102.602664 C54.9108049,101.934259 42.0938891,98.7840945 31.326692,91.9638947 C24.257632,87.1117744 26.5234355,77.4137227 24.5045861,71.367139 Z" id="Fill-1"></path>
                        <path d="M287.418833,129.040658 C402.524121,118.878437 564.655637,27.1956425 653.787531,45.5086835 C693.398963,54.699243 730.300074,69.3979494 729.417213,99.680379 C728.855392,115.802539 680.069617,114.187229 696.436498,140.428288 C701.844792,153.517872 733.152393,148.758586 744.493758,132.166067 C755.82895,115.573549 757.446499,52.7125968 652.188504,36.0891335 C610.829872,29.1327773 554.542868,27.3936883 493.841559,43.2249687 C433.134077,59.0500601 277.880232,115.610682 244.18335,117.485928 C220.500456,118.797981 195.37288,117.733485 184.037688,101.81556 C174.992996,94.9829819 167.621417,103.047156 173.690313,107.837387 C188.371732,120.091467 205.133739,136.306461 287.418833,129.040658 Z" id="Fill-4"></path>
                    </g>
                </g>
            </g>
        </g>
    </g>
</svg>